{
  "accessors": [
    {
      "bufferView": 2,
      "componentType": 5126,
      "count": 65532,
      "max": [
        0.5,
        -0.025678999722003937,
        0.47249999642372131
      ],
      "min": [
        -0.5,
        -0.098339997231960297,
        -0.5
      ],
      "type": "VEC3"
    },
    {
      "bufferView": 2,
      "byteOffset": 786384,
      "componentType": 5126,
      "count": 65532,
      "max": [
        0.87195283174514771,
        -0.24244013428688049,
        0.92380565404891968
      ],
      "min": [
        -0.94932103157043457,
        -0.99999982118606567,
        -0.93149012327194214
      ],
      "type": "VEC3"
    },
    {
      "bufferView": 3,
      "componentType": 5126,
      "count": 65532,
      "max": [
        1,
        0.90536218881607056,
        3.1888248486211523e-06,
        1
      ],
      "min": [
        0.28998297452926636,
        -0.95703190565109253,
        -4.6091013246041257e-06,
        1
      ],
      "type": "VEC4"
    },
    {
      "bufferView": 1,
      "componentType": 5126,
      "count": 65532,
      "max": [
        1,
        0.9725000262260437
      ],
      "min": [
        0,
        0
      ],
      "type": "VEC2"
    },
    {
      "bufferView": 0,
      "componentType": 5125,
      "count": 363822,
      "max": [
        65531
      ],
      "min": [
        0
      ],
      "type": "SCALAR"
    },
    {
      "bufferView": 2,
      "byteOffset": 1572768,
      "componentType": 5126,
      "count": 65532,
      "max": [
        0.5,
        -0.025973999872803688,
        0.35499998927116394
      ],
      "min": [
        -0.5,
        -0.12857800722122192,
        -0.23749999701976776
      ],
      "type": "VEC3"
    },
    {
      "bufferView": 2,
      "byteOffset": 2359152,
      "componentType": 5126,
      "count": 65532,
      "max": [
        0.89061039686203003,
        -0.2007969468832016,
        0.92021381855010986
      ],
      "min": [
        -0.92374998331069946,
        -0.99999970197677612,
        -0.9128381609916687
      ],
      "type": "VEC3"
    },
    {
      "bufferView": 3,
      "byteOffset": 1048512,
      "componentType": 5126,
      "count": 65532,
      "max": [
        1,
        0.92307686805725098,
        2.8776810268027475e-06,
        1
      ],
      "min": [
        0.26047289371490479,
        -0.9654812216758728,
        -4.2119349927816074e-06,
        1
      ],
      "type": "VEC4"
    },
    {
      "bufferView": 1,
      "byteOffset": 524256,
      "componentType": 5126,
      "count": 65532,
      "max": [
        1,
        0.85500001907348633
      ],
      "min": [
        0,
        0.26249998807907104
      ],
      "type": "VEC2"
    },
    {
      "bufferView": 0,
      "byteOffset": 1455288,
      "componentType": 5125,
      "count": 344964,
      "max": [
        65531
      ],
      "min": [
        0
      ],
      "type": "SCALAR"
    },
    {
      "bufferView": 2,
      "byteOffset": 3145536,
      "componentType": 5126,
      "count": 45881,
      "max": [
        0.5,
        -0.024275999516248703,
        0.5
      ],
      "min": [
        -0.5,
        -0.096037998795509338,
        0.18250000476837158
      ],
      "type": "VEC3"
    },
    {
      "bufferView": 2,
      "byteOffset": 3696108,
      "componentType": 5126,
      "count": 45881,
      "max": [
        0.93792551755905151,
        -0.22728177905082703,
        0.96612560749053955
      ],
      "min": [
        -0.95241373777389526,
        -0.99999994039535522,
        -0.90595847368240356
      ],
      "type": "VEC3"
    },
    {
      "bufferView": 3,
      "byteOffset": 2097024,
      "componentType": 5126,
      "count": 45881,
      "max": [
        1,
        0.96754646301269531,
        4.0903973967942875e-06,
        1
      ],
      "min": [
        0.25269320607185364,
        -0.9654812216758728,
        -2.427290837658802e-06,
        1
      ],
      "type": "VEC4"
    },
    {
      "bufferView": 1,
      "byteOffset": 1048512,
      "componentType": 5126,
      "count": 45881,
      "max": [
        1,
        1
      ],
      "min": [
        0,
        0.68250000476837158
      ],
      "type": "VEC2"
    },
    {
      "bufferView": 0,
      "byteOffset": 2835144,
      "componentType": 5125,
      "count": 251214,
      "max": [
        45880
      ],
      "min": [
        0
      ],
      "type": "SCALAR"
    }
  ],
  "asset": {
    "extras": {
      "author": "artfromheath (https://sketchfab.com/artfromheath)",
      "license": "CC-BY-4.0 (http://creativecommons.org/licenses/by/4.0/)",
      "source": "https://sketchfab.com/3d-models/rocky-desert-terrain-0abbd5ee9c404913bc815b7d59a505e3",
      "title": "Rocky Desert - Terrain"
    },
    "generator": "Sketchfab-6.71.0",
    "version": "2.0"
  },
  "bufferViews": [
    {
      "buffer": 0,
      "byteLength": 3840000,
      "byteOffset": 0,
      "name": "floatBufferViews",
      "target": 34963
    },
    {
      "buffer": 0,
      "byteLength": 1415560,
      "byteOffset": 3840000,
      "byteStride": 8,
      "name": "floatBufferViews",
      "target": 34962
    },
    {
      "buffer": 0,
      "byteLength": 4246680,
      "byteOffset": 5255560,
      "byteStride": 12,
      "name": "floatBufferViews",
      "target": 34962
    },
    {
      "buffer": 0,
      "byteLength": 2831120,
      "byteOffset": 9502240,
      "byteStride": 16,
      "name": "floatBufferViews",
      "target": 34962
    }
  ],
  "buffers": [
    {
      "byteLength": 12333360,
      "uri": "scene.bin"
    }
  ],
  "images": [
    {
      "uri": "textures/material_0_baseColor.png"
    }
  ],
  "materials": [
    {
      "doubleSided": true,
      "name": "material_0",
      "pbrMetallicRoughness": {
        "baseColorFactor": [
          1,
          1,
          1,
          1
        ],
        "baseColorTexture": {
          "index": 0,
          "texCoord": 0
        },
        "metallicFactor": 0,
        "roughnessFactor": 0.59999999999999998
      }
    }
  ],
  "meshes": [
    {
      "primitives": [
        {
          "attributes": {
            "NORMAL": 1,
            "POSITION": 0,
            "TANGENT": 2,
            "TEXCOORD_0": 3
          },
          "indices": 4,
          "material": 0,
          "mode": 4
        }
      ]
    },
    {
      "primitives": [
        {
          "attributes": {
            "NORMAL": 6,
            "POSITION": 5,
            "TANGENT": 7,
            "TEXCOORD_0": 8
          },
          "indices": 9,
          "material": 0,
          "mode": 4
        }
      ]
    },
    {
      "primitives": [
        {
          "attributes": {
            "NORMAL": 11,
            "POSITION": 10,
            "TANGENT": 12,
            "TEXCOORD_0": 13
          },
          "indices": 14,
          "material": 0,
          "mode": 4
        }
      ]
    }
  ],
  "nodes": [
    {
      "children": [
        1
      ],
      "name": "RootNode (gltf orientation matrix)",
      "rotation": [
        -0.70710678118654746,
        -0,
        -0,
        0.70710678118654757
      ]
    },
    {
      "children": [
        2
      ],
      "matrix": [
        1,
        0,
        0,
        0,
        0,
        2.2204460492503131e-16,
        -1,
        0,
        0,
        1,
        2.2204460492503131e-16,
        0,
        0,
        -0.076426878571510315,
        -0.076427176594734192,
        1
      ],
      "name": "RootNode (model correction matrix)"
    },
    {
      "children": [
        3,
        4,
        5
      ],
      "name": "RockyDesertMesh.obj.cleaner.materialmerger.gles"
    },
    {
      "mesh": 0,
      "name": ""
    },
    {
      "mesh": 1,
      "name": ""
    },
    {
      "mesh": 2,
      "name": ""
    }
  ],
  "samplers": [
    {
      "magFilter": 9729,
      "minFilter": 9987,
      "wrapS": 10497,
      "wrapT": 10497
    }
  ],
  "scene": 0,
  "scenes": [
    {
      "name": "OSG_Scene",
      "nodes": [
        0
      ]
    }
  ],
  "textures": [
    {
      "sampler": 0,
      "source": 0
    }
  ]
}

